# xmcd CD database file
#
# Track frame offsets:
#	150
#	21507
#	34410
#	58045
#	70807
#	82179
#	97787
#	118010
#	133372
#	149705
#
# Disc length: 2178 seconds
#
# Revision: 0
# Processed by: cddbd v1.4PL0 Copyright (c) Steve Scherf et al.
# Submitted via: CDex 1.50Beta7
#
DISCID=9b08800a
DTITLE=Various Artist - Redneck Country
DYEAR=1900
DGENRE=Country
TTITLE0=Conway Twitty/Reb Neckin Love Makin Night
TTITLE1=Johnny Russell/Rednecks, White Socks and Blue Ribbon Beer
TTITLE2=The Charlie Daniels Band/Redneck Fiddling Man
TTITLE3=Jerry Reed/I'm Just a Redneck in a Rock n Roll Bar
TTITLE4=Vernon Oxford/The Redneck National Anthem
TTITLE5=The Bellamy Brothers/Redneck Girl
TTITLE6=Jerry Jeff Wlaker/Up Against the Wall Redneck
TTITLE7=David Allen Coe/Longhaired Redneck
TTITLE8=GLenn Sutton/Redneck Disco
TTITLE9=Wayne Kemp/Redneck and over Thirty
EXTD=
EXTT0=
EXTT1=
EXTT2=
EXTT3=
EXTT4=
EXTT5=
EXTT6=
EXTT7=
EXTT8=
EXTT9=
PLAYORDER=
